<mxfile host="app.diagrams.net" modified="2023-06-06T15:22:00.002Z" agent="Mozilla/5.0 (Windows NT 10.0; Win64; x64) AppleWebKit/537.36 (KHTML, like Gecko) Chrome/113.0.0.0 Safari/537.36" etag="B3MkR3enzkDc_zDzmDXR" version="21.3.7" type="device">
  <diagram name="Page-1" id="_OWaajc-3fpwD0rDf2_s">
    <mxGraphModel dx="2388" dy="904" grid="1" gridSize="10" guides="1" tooltips="1" connect="1" arrows="1" fold="1" page="0" pageScale="1" pageWidth="1169" pageHeight="827" math="0" shadow="0">
      <root>
        <mxCell id="0" />
        <mxCell id="1" parent="0" />
        <mxCell id="yKqNTpvzBy1KA8ICd-nT-71" style="edgeStyle=none;rounded=0;orthogonalLoop=1;jettySize=auto;html=1;exitX=1;exitY=0;exitDx=0;exitDy=0;entryX=0.073;entryY=0.81;entryDx=0;entryDy=0;entryPerimeter=0;endArrow=none;endFill=0;" parent="1" source="yKqNTpvzBy1KA8ICd-nT-2" target="yKqNTpvzBy1KA8ICd-nT-70" edge="1">
          <mxGeometry relative="1" as="geometry" />
        </mxCell>
        <mxCell id="yKqNTpvzBy1KA8ICd-nT-72" style="edgeStyle=none;rounded=0;orthogonalLoop=1;jettySize=auto;html=1;exitX=1;exitY=0.75;exitDx=0;exitDy=0;endArrow=none;endFill=0;" parent="1" source="yKqNTpvzBy1KA8ICd-nT-2" target="yKqNTpvzBy1KA8ICd-nT-69" edge="1">
          <mxGeometry relative="1" as="geometry" />
        </mxCell>
        <mxCell id="yKqNTpvzBy1KA8ICd-nT-73" style="edgeStyle=none;rounded=0;orthogonalLoop=1;jettySize=auto;html=1;exitX=0.5;exitY=1;exitDx=0;exitDy=0;endArrow=none;endFill=0;" parent="1" source="yKqNTpvzBy1KA8ICd-nT-2" target="yKqNTpvzBy1KA8ICd-nT-68" edge="1">
          <mxGeometry relative="1" as="geometry" />
        </mxCell>
        <mxCell id="yKqNTpvzBy1KA8ICd-nT-74" style="edgeStyle=none;rounded=0;orthogonalLoop=1;jettySize=auto;html=1;exitX=0.25;exitY=1;exitDx=0;exitDy=0;entryX=1;entryY=0;entryDx=0;entryDy=0;endArrow=none;endFill=0;" parent="1" source="yKqNTpvzBy1KA8ICd-nT-2" target="yKqNTpvzBy1KA8ICd-nT-62" edge="1">
          <mxGeometry relative="1" as="geometry" />
        </mxCell>
        <mxCell id="yKqNTpvzBy1KA8ICd-nT-75" style="edgeStyle=none;rounded=0;orthogonalLoop=1;jettySize=auto;html=1;exitX=0;exitY=0.5;exitDx=0;exitDy=0;entryX=1;entryY=0.5;entryDx=0;entryDy=0;endArrow=none;endFill=0;" parent="1" source="yKqNTpvzBy1KA8ICd-nT-2" target="yKqNTpvzBy1KA8ICd-nT-61" edge="1">
          <mxGeometry relative="1" as="geometry" />
        </mxCell>
        <mxCell id="bBw4uAmNYkBWMHcCUEIj-27" style="edgeStyle=orthogonalEdgeStyle;rounded=0;orthogonalLoop=1;jettySize=auto;html=1;exitX=1;exitY=0.5;exitDx=0;exitDy=0;entryX=0;entryY=0.5;entryDx=0;entryDy=0;shape=link;" parent="1" source="yKqNTpvzBy1KA8ICd-nT-2" target="bBw4uAmNYkBWMHcCUEIj-26" edge="1">
          <mxGeometry relative="1" as="geometry" />
        </mxCell>
        <mxCell id="yKqNTpvzBy1KA8ICd-nT-2" value="Users" style="rounded=0;whiteSpace=wrap;html=1;" parent="1" vertex="1">
          <mxGeometry x="850" y="410" width="70" height="30" as="geometry" />
        </mxCell>
        <mxCell id="yKqNTpvzBy1KA8ICd-nT-3" value="d" style="ellipse;whiteSpace=wrap;html=1;aspect=fixed;" parent="1" vertex="1">
          <mxGeometry x="875" y="350" width="20" height="20" as="geometry" />
        </mxCell>
        <mxCell id="yKqNTpvzBy1KA8ICd-nT-4" value="" style="shape=link;html=1;rounded=0;entryX=0.5;entryY=0;entryDx=0;entryDy=0;exitX=0.5;exitY=1;exitDx=0;exitDy=0;" parent="1" source="yKqNTpvzBy1KA8ICd-nT-3" target="yKqNTpvzBy1KA8ICd-nT-2" edge="1">
          <mxGeometry width="100" relative="1" as="geometry">
            <mxPoint x="815" y="390" as="sourcePoint" />
            <mxPoint x="915" y="390" as="targetPoint" />
          </mxGeometry>
        </mxCell>
        <mxCell id="yKqNTpvzBy1KA8ICd-nT-5" value="Admin_User" style="rounded=0;whiteSpace=wrap;html=1;" parent="1" vertex="1">
          <mxGeometry x="760" y="250" width="70" height="30" as="geometry" />
        </mxCell>
        <mxCell id="yKqNTpvzBy1KA8ICd-nT-6" value="Novice" style="rounded=0;whiteSpace=wrap;html=1;" parent="1" vertex="1">
          <mxGeometry x="925" y="250" width="70" height="30" as="geometry" />
        </mxCell>
        <mxCell id="yKqNTpvzBy1KA8ICd-nT-8" value="" style="shape=link;html=1;rounded=0;entryX=1;entryY=0;entryDx=0;entryDy=0;exitX=0.5;exitY=1;exitDx=0;exitDy=0;" parent="1" source="yKqNTpvzBy1KA8ICd-nT-6" target="yKqNTpvzBy1KA8ICd-nT-3" edge="1">
          <mxGeometry width="100" relative="1" as="geometry">
            <mxPoint x="890" y="380" as="sourcePoint" />
            <mxPoint x="890" y="420" as="targetPoint" />
          </mxGeometry>
        </mxCell>
        <mxCell id="yKqNTpvzBy1KA8ICd-nT-9" value="" style="shape=link;html=1;rounded=0;entryX=0;entryY=0;entryDx=0;entryDy=0;exitX=0.5;exitY=1;exitDx=0;exitDy=0;" parent="1" source="yKqNTpvzBy1KA8ICd-nT-5" target="yKqNTpvzBy1KA8ICd-nT-3" edge="1">
          <mxGeometry width="100" relative="1" as="geometry">
            <mxPoint x="960" y="300" as="sourcePoint" />
            <mxPoint x="897" y="363" as="targetPoint" />
          </mxGeometry>
        </mxCell>
        <mxCell id="yKqNTpvzBy1KA8ICd-nT-85" style="edgeStyle=none;rounded=0;orthogonalLoop=1;jettySize=auto;html=1;exitX=0;exitY=0.75;exitDx=0;exitDy=0;entryX=1;entryY=0;entryDx=0;entryDy=0;endArrow=none;endFill=0;" parent="1" source="yKqNTpvzBy1KA8ICd-nT-10" target="yKqNTpvzBy1KA8ICd-nT-82" edge="1">
          <mxGeometry relative="1" as="geometry" />
        </mxCell>
        <mxCell id="yKqNTpvzBy1KA8ICd-nT-86" style="edgeStyle=none;rounded=0;orthogonalLoop=1;jettySize=auto;html=1;exitX=0.25;exitY=1;exitDx=0;exitDy=0;entryX=0.5;entryY=0;entryDx=0;entryDy=0;endArrow=none;endFill=0;" parent="1" source="yKqNTpvzBy1KA8ICd-nT-10" target="yKqNTpvzBy1KA8ICd-nT-81" edge="1">
          <mxGeometry relative="1" as="geometry" />
        </mxCell>
        <mxCell id="yKqNTpvzBy1KA8ICd-nT-87" style="edgeStyle=none;rounded=0;orthogonalLoop=1;jettySize=auto;html=1;exitX=0.75;exitY=1;exitDx=0;exitDy=0;entryX=0.344;entryY=0.01;entryDx=0;entryDy=0;entryPerimeter=0;endArrow=none;endFill=0;" parent="1" source="yKqNTpvzBy1KA8ICd-nT-10" target="yKqNTpvzBy1KA8ICd-nT-84" edge="1">
          <mxGeometry relative="1" as="geometry" />
        </mxCell>
        <mxCell id="yKqNTpvzBy1KA8ICd-nT-88" style="edgeStyle=none;rounded=0;orthogonalLoop=1;jettySize=auto;html=1;exitX=1;exitY=0.75;exitDx=0;exitDy=0;endArrow=none;endFill=0;" parent="1" source="yKqNTpvzBy1KA8ICd-nT-10" target="yKqNTpvzBy1KA8ICd-nT-83" edge="1">
          <mxGeometry relative="1" as="geometry" />
        </mxCell>
        <mxCell id="yKqNTpvzBy1KA8ICd-nT-10" value="Reviews" style="rounded=0;whiteSpace=wrap;html=1;" parent="1" vertex="1">
          <mxGeometry x="845" y="770" width="70" height="30" as="geometry" />
        </mxCell>
        <mxCell id="yKqNTpvzBy1KA8ICd-nT-96" style="edgeStyle=none;rounded=0;orthogonalLoop=1;jettySize=auto;html=1;exitX=0;exitY=0;exitDx=0;exitDy=0;entryX=1;entryY=1;entryDx=0;entryDy=0;endArrow=none;endFill=0;" parent="1" source="yKqNTpvzBy1KA8ICd-nT-12" target="yKqNTpvzBy1KA8ICd-nT-91" edge="1">
          <mxGeometry relative="1" as="geometry" />
        </mxCell>
        <mxCell id="yKqNTpvzBy1KA8ICd-nT-97" style="edgeStyle=none;rounded=0;orthogonalLoop=1;jettySize=auto;html=1;exitX=0.75;exitY=0;exitDx=0;exitDy=0;entryX=0;entryY=1;entryDx=0;entryDy=0;endArrow=none;endFill=0;" parent="1" source="yKqNTpvzBy1KA8ICd-nT-12" target="yKqNTpvzBy1KA8ICd-nT-92" edge="1">
          <mxGeometry relative="1" as="geometry" />
        </mxCell>
        <mxCell id="yKqNTpvzBy1KA8ICd-nT-98" style="edgeStyle=none;rounded=0;orthogonalLoop=1;jettySize=auto;html=1;exitX=1;exitY=0.25;exitDx=0;exitDy=0;endArrow=none;endFill=0;" parent="1" source="yKqNTpvzBy1KA8ICd-nT-12" target="yKqNTpvzBy1KA8ICd-nT-94" edge="1">
          <mxGeometry relative="1" as="geometry" />
        </mxCell>
        <mxCell id="yKqNTpvzBy1KA8ICd-nT-99" style="edgeStyle=none;rounded=0;orthogonalLoop=1;jettySize=auto;html=1;exitX=0;exitY=0.25;exitDx=0;exitDy=0;entryX=0.969;entryY=0.693;entryDx=0;entryDy=0;entryPerimeter=0;endArrow=none;endFill=0;" parent="1" source="yKqNTpvzBy1KA8ICd-nT-12" target="yKqNTpvzBy1KA8ICd-nT-90" edge="1">
          <mxGeometry relative="1" as="geometry" />
        </mxCell>
        <mxCell id="yKqNTpvzBy1KA8ICd-nT-100" style="edgeStyle=none;rounded=0;orthogonalLoop=1;jettySize=auto;html=1;exitX=0;exitY=1;exitDx=0;exitDy=0;entryX=1;entryY=0;entryDx=0;entryDy=0;endArrow=none;endFill=0;" parent="1" source="yKqNTpvzBy1KA8ICd-nT-12" target="yKqNTpvzBy1KA8ICd-nT-89" edge="1">
          <mxGeometry relative="1" as="geometry" />
        </mxCell>
        <mxCell id="yKqNTpvzBy1KA8ICd-nT-161" style="edgeStyle=none;rounded=0;orthogonalLoop=1;jettySize=auto;html=1;exitX=1;exitY=1;exitDx=0;exitDy=0;endArrow=none;endFill=0;" parent="1" source="yKqNTpvzBy1KA8ICd-nT-12" target="yKqNTpvzBy1KA8ICd-nT-159" edge="1">
          <mxGeometry relative="1" as="geometry" />
        </mxCell>
        <mxCell id="bBw4uAmNYkBWMHcCUEIj-21" style="edgeStyle=orthogonalEdgeStyle;rounded=0;orthogonalLoop=1;jettySize=auto;html=1;exitX=0.5;exitY=0;exitDx=0;exitDy=0;entryX=0.5;entryY=1;entryDx=0;entryDy=0;shape=link;" parent="1" source="yKqNTpvzBy1KA8ICd-nT-12" target="bBw4uAmNYkBWMHcCUEIj-20" edge="1">
          <mxGeometry relative="1" as="geometry" />
        </mxCell>
        <mxCell id="bBw4uAmNYkBWMHcCUEIj-32" style="edgeStyle=orthogonalEdgeStyle;rounded=0;orthogonalLoop=1;jettySize=auto;html=1;exitX=1;exitY=0.5;exitDx=0;exitDy=0;entryX=0;entryY=0.5;entryDx=0;entryDy=0;shape=link;" parent="1" source="yKqNTpvzBy1KA8ICd-nT-12" target="bBw4uAmNYkBWMHcCUEIj-31" edge="1">
          <mxGeometry relative="1" as="geometry" />
        </mxCell>
        <mxCell id="bBw4uAmNYkBWMHcCUEIj-51" style="edgeStyle=orthogonalEdgeStyle;rounded=0;orthogonalLoop=1;jettySize=auto;html=1;exitX=0.5;exitY=1;exitDx=0;exitDy=0;entryX=0.5;entryY=0;entryDx=0;entryDy=0;shape=link;" parent="1" source="yKqNTpvzBy1KA8ICd-nT-12" target="bBw4uAmNYkBWMHcCUEIj-50" edge="1">
          <mxGeometry relative="1" as="geometry" />
        </mxCell>
        <mxCell id="yKqNTpvzBy1KA8ICd-nT-12" value="Wine" style="rounded=0;whiteSpace=wrap;html=1;" parent="1" vertex="1">
          <mxGeometry x="420" y="770" width="70" height="30" as="geometry" />
        </mxCell>
        <mxCell id="yKqNTpvzBy1KA8ICd-nT-136" style="edgeStyle=none;rounded=0;orthogonalLoop=1;jettySize=auto;html=1;exitX=0.75;exitY=0;exitDx=0;exitDy=0;entryX=0;entryY=1;entryDx=0;entryDy=0;endArrow=none;endFill=0;" parent="1" source="yKqNTpvzBy1KA8ICd-nT-14" target="yKqNTpvzBy1KA8ICd-nT-125" edge="1">
          <mxGeometry relative="1" as="geometry" />
        </mxCell>
        <mxCell id="yKqNTpvzBy1KA8ICd-nT-137" style="edgeStyle=none;rounded=0;orthogonalLoop=1;jettySize=auto;html=1;exitX=0;exitY=0;exitDx=0;exitDy=0;entryX=0.938;entryY=0.744;entryDx=0;entryDy=0;entryPerimeter=0;endArrow=none;endFill=0;" parent="1" source="yKqNTpvzBy1KA8ICd-nT-14" target="yKqNTpvzBy1KA8ICd-nT-124" edge="1">
          <mxGeometry relative="1" as="geometry" />
        </mxCell>
        <mxCell id="yKqNTpvzBy1KA8ICd-nT-138" style="edgeStyle=none;rounded=0;orthogonalLoop=1;jettySize=auto;html=1;exitX=0;exitY=0.75;exitDx=0;exitDy=0;entryX=1;entryY=0.5;entryDx=0;entryDy=0;endArrow=none;endFill=0;" parent="1" source="yKqNTpvzBy1KA8ICd-nT-14" target="yKqNTpvzBy1KA8ICd-nT-123" edge="1">
          <mxGeometry relative="1" as="geometry" />
        </mxCell>
        <mxCell id="yKqNTpvzBy1KA8ICd-nT-141" style="edgeStyle=none;rounded=0;orthogonalLoop=1;jettySize=auto;html=1;exitX=1;exitY=0.75;exitDx=0;exitDy=0;entryX=0;entryY=0;entryDx=0;entryDy=0;endArrow=none;endFill=0;" parent="1" source="yKqNTpvzBy1KA8ICd-nT-14" target="yKqNTpvzBy1KA8ICd-nT-139" edge="1">
          <mxGeometry relative="1" as="geometry" />
        </mxCell>
        <mxCell id="yKqNTpvzBy1KA8ICd-nT-143" style="edgeStyle=none;rounded=0;orthogonalLoop=1;jettySize=auto;html=1;exitX=0.25;exitY=1;exitDx=0;exitDy=0;entryX=0.798;entryY=0.128;entryDx=0;entryDy=0;entryPerimeter=0;endArrow=none;endFill=0;" parent="1" source="yKqNTpvzBy1KA8ICd-nT-14" target="yKqNTpvzBy1KA8ICd-nT-142" edge="1">
          <mxGeometry relative="1" as="geometry" />
        </mxCell>
        <mxCell id="yKqNTpvzBy1KA8ICd-nT-147" style="edgeStyle=none;rounded=0;orthogonalLoop=1;jettySize=auto;html=1;exitX=0.374;exitY=0.973;exitDx=0;exitDy=0;exitPerimeter=0;endArrow=none;endFill=0;" parent="1" source="yKqNTpvzBy1KA8ICd-nT-14" target="yKqNTpvzBy1KA8ICd-nT-146" edge="1">
          <mxGeometry relative="1" as="geometry" />
        </mxCell>
        <mxCell id="bBw4uAmNYkBWMHcCUEIj-3" style="rounded=0;orthogonalLoop=1;jettySize=auto;html=1;exitX=0.643;exitY=0.967;exitDx=0;exitDy=0;entryX=0.5;entryY=0;entryDx=0;entryDy=0;endArrow=none;endFill=0;exitPerimeter=0;" parent="1" source="yKqNTpvzBy1KA8ICd-nT-14" target="bBw4uAmNYkBWMHcCUEIj-2" edge="1">
          <mxGeometry relative="1" as="geometry" />
        </mxCell>
        <mxCell id="bBw4uAmNYkBWMHcCUEIj-9" style="edgeStyle=orthogonalEdgeStyle;rounded=0;orthogonalLoop=1;jettySize=auto;html=1;exitX=0.5;exitY=0;exitDx=0;exitDy=0;entryX=0.5;entryY=1;entryDx=0;entryDy=0;shape=link;" parent="1" source="yKqNTpvzBy1KA8ICd-nT-14" target="bBw4uAmNYkBWMHcCUEIj-8" edge="1">
          <mxGeometry relative="1" as="geometry" />
        </mxCell>
        <mxCell id="bBw4uAmNYkBWMHcCUEIj-16" style="edgeStyle=orthogonalEdgeStyle;rounded=0;orthogonalLoop=1;jettySize=auto;html=1;exitX=0.5;exitY=1;exitDx=0;exitDy=0;entryX=0.5;entryY=0;entryDx=0;entryDy=0;shape=link;" parent="1" source="yKqNTpvzBy1KA8ICd-nT-14" target="bBw4uAmNYkBWMHcCUEIj-15" edge="1">
          <mxGeometry relative="1" as="geometry" />
        </mxCell>
        <mxCell id="yKqNTpvzBy1KA8ICd-nT-14" value="Winery" style="rounded=0;whiteSpace=wrap;html=1;" parent="1" vertex="1">
          <mxGeometry x="-200" y="775" width="70" height="30" as="geometry" />
        </mxCell>
        <mxCell id="yKqNTpvzBy1KA8ICd-nT-47" style="edgeStyle=none;rounded=0;orthogonalLoop=1;jettySize=auto;html=1;exitX=0;exitY=0.5;exitDx=0;exitDy=0;entryX=0.938;entryY=0.277;entryDx=0;entryDy=0;endArrow=none;endFill=0;entryPerimeter=0;" parent="1" source="yKqNTpvzBy1KA8ICd-nT-15" target="yKqNTpvzBy1KA8ICd-nT-45" edge="1">
          <mxGeometry relative="1" as="geometry" />
        </mxCell>
        <mxCell id="yKqNTpvzBy1KA8ICd-nT-48" style="edgeStyle=none;rounded=0;orthogonalLoop=1;jettySize=auto;html=1;exitX=0.25;exitY=0;exitDx=0;exitDy=0;entryX=0.927;entryY=0.777;entryDx=0;entryDy=0;endArrow=none;endFill=0;entryPerimeter=0;" parent="1" source="yKqNTpvzBy1KA8ICd-nT-15" target="yKqNTpvzBy1KA8ICd-nT-46" edge="1">
          <mxGeometry relative="1" as="geometry" />
        </mxCell>
        <mxCell id="yKqNTpvzBy1KA8ICd-nT-50" style="edgeStyle=none;rounded=0;orthogonalLoop=1;jettySize=auto;html=1;exitX=0.75;exitY=0;exitDx=0;exitDy=0;entryX=0.228;entryY=0.936;entryDx=0;entryDy=0;endArrow=none;endFill=0;entryPerimeter=0;" parent="1" source="yKqNTpvzBy1KA8ICd-nT-15" target="yKqNTpvzBy1KA8ICd-nT-49" edge="1">
          <mxGeometry relative="1" as="geometry" />
        </mxCell>
        <mxCell id="yKqNTpvzBy1KA8ICd-nT-52" style="edgeStyle=none;rounded=0;orthogonalLoop=1;jettySize=auto;html=1;exitX=1;exitY=0.25;exitDx=0;exitDy=0;entryX=0.048;entryY=0.658;entryDx=0;entryDy=0;entryPerimeter=0;endArrow=none;endFill=0;" parent="1" source="yKqNTpvzBy1KA8ICd-nT-15" target="yKqNTpvzBy1KA8ICd-nT-51" edge="1">
          <mxGeometry relative="1" as="geometry" />
        </mxCell>
        <mxCell id="yKqNTpvzBy1KA8ICd-nT-55" style="edgeStyle=none;rounded=0;orthogonalLoop=1;jettySize=auto;html=1;exitX=1;exitY=0.75;exitDx=0;exitDy=0;endArrow=none;endFill=0;" parent="1" source="yKqNTpvzBy1KA8ICd-nT-15" target="yKqNTpvzBy1KA8ICd-nT-54" edge="1">
          <mxGeometry relative="1" as="geometry" />
        </mxCell>
        <mxCell id="yKqNTpvzBy1KA8ICd-nT-15" value="Region" style="rounded=0;whiteSpace=wrap;html=1;" parent="1" vertex="1">
          <mxGeometry x="-200" y="471.25" width="70" height="30" as="geometry" />
        </mxCell>
        <mxCell id="yKqNTpvzBy1KA8ICd-nT-151" style="edgeStyle=none;rounded=0;orthogonalLoop=1;jettySize=auto;html=1;exitX=0.25;exitY=1;exitDx=0;exitDy=0;endArrow=none;endFill=0;" parent="1" source="yKqNTpvzBy1KA8ICd-nT-16" target="yKqNTpvzBy1KA8ICd-nT-150" edge="1">
          <mxGeometry relative="1" as="geometry" />
        </mxCell>
        <mxCell id="yKqNTpvzBy1KA8ICd-nT-153" style="edgeStyle=none;rounded=0;orthogonalLoop=1;jettySize=auto;html=1;exitX=0.75;exitY=1;exitDx=0;exitDy=0;entryX=0.253;entryY=0.072;entryDx=0;entryDy=0;entryPerimeter=0;endArrow=none;endFill=0;" parent="1" source="yKqNTpvzBy1KA8ICd-nT-16" target="yKqNTpvzBy1KA8ICd-nT-152" edge="1">
          <mxGeometry relative="1" as="geometry" />
        </mxCell>
        <mxCell id="yKqNTpvzBy1KA8ICd-nT-16" value="Inventory" style="rounded=0;whiteSpace=wrap;html=1;" parent="1" vertex="1">
          <mxGeometry x="-200" y="1110" width="70" height="30" as="geometry" />
        </mxCell>
        <mxCell id="bBw4uAmNYkBWMHcCUEIj-40" style="rounded=0;orthogonalLoop=1;jettySize=auto;html=1;exitX=0.5;exitY=1;exitDx=0;exitDy=0;entryX=0.7;entryY=0;entryDx=0;entryDy=0;endArrow=none;endFill=0;entryPerimeter=0;" parent="1" source="yKqNTpvzBy1KA8ICd-nT-17" target="bBw4uAmNYkBWMHcCUEIj-36" edge="1">
          <mxGeometry relative="1" as="geometry" />
        </mxCell>
        <mxCell id="bBw4uAmNYkBWMHcCUEIj-53" style="edgeStyle=none;rounded=0;orthogonalLoop=1;jettySize=auto;html=1;exitX=0.5;exitY=0;exitDx=0;exitDy=0;entryX=0;entryY=0.5;entryDx=0;entryDy=0;shape=link;" parent="1" source="yKqNTpvzBy1KA8ICd-nT-17" target="bBw4uAmNYkBWMHcCUEIj-50" edge="1">
          <mxGeometry relative="1" as="geometry" />
        </mxCell>
        <mxCell id="yKqNTpvzBy1KA8ICd-nT-17" value="Red" style="rounded=0;whiteSpace=wrap;html=1;" parent="1" vertex="1">
          <mxGeometry x="210" y="970" width="70" height="30" as="geometry" />
        </mxCell>
        <mxCell id="yKqNTpvzBy1KA8ICd-nT-102" style="edgeStyle=none;rounded=0;orthogonalLoop=1;jettySize=auto;html=1;exitX=0.5;exitY=1;exitDx=0;exitDy=0;endArrow=none;endFill=0;" parent="1" source="yKqNTpvzBy1KA8ICd-nT-18" target="yKqNTpvzBy1KA8ICd-nT-101" edge="1">
          <mxGeometry relative="1" as="geometry" />
        </mxCell>
        <mxCell id="bBw4uAmNYkBWMHcCUEIj-57" style="edgeStyle=none;rounded=0;orthogonalLoop=1;jettySize=auto;html=1;exitX=0.5;exitY=0;exitDx=0;exitDy=0;entryX=1;entryY=1;entryDx=0;entryDy=0;shape=link;movable=0;resizable=0;rotatable=0;deletable=0;editable=0;locked=1;connectable=0;" parent="1" source="yKqNTpvzBy1KA8ICd-nT-18" target="bBw4uAmNYkBWMHcCUEIj-50" edge="1">
          <mxGeometry relative="1" as="geometry" />
        </mxCell>
        <mxCell id="yKqNTpvzBy1KA8ICd-nT-18" value="Dessert" style="rounded=0;whiteSpace=wrap;html=1;" parent="1" vertex="1">
          <mxGeometry x="575" y="960" width="70" height="30" as="geometry" />
        </mxCell>
        <mxCell id="bBw4uAmNYkBWMHcCUEIj-42" style="rounded=0;orthogonalLoop=1;jettySize=auto;html=1;exitX=0.5;exitY=1;exitDx=0;exitDy=0;entryX=0.638;entryY=0.02;entryDx=0;entryDy=0;endArrow=none;endFill=0;entryPerimeter=0;" parent="1" source="yKqNTpvzBy1KA8ICd-nT-20" target="bBw4uAmNYkBWMHcCUEIj-41" edge="1">
          <mxGeometry relative="1" as="geometry" />
        </mxCell>
        <mxCell id="bBw4uAmNYkBWMHcCUEIj-54" style="edgeStyle=none;rounded=0;orthogonalLoop=1;jettySize=auto;html=1;exitX=0.5;exitY=0;exitDx=0;exitDy=0;entryX=0;entryY=1;entryDx=0;entryDy=0;shape=link;movable=0;resizable=0;rotatable=0;deletable=0;editable=0;locked=1;connectable=0;" parent="1" source="yKqNTpvzBy1KA8ICd-nT-20" target="bBw4uAmNYkBWMHcCUEIj-50" edge="1">
          <mxGeometry relative="1" as="geometry" />
        </mxCell>
        <mxCell id="yKqNTpvzBy1KA8ICd-nT-20" value="White" style="rounded=0;whiteSpace=wrap;html=1;" parent="1" vertex="1">
          <mxGeometry x="290" y="970" width="70" height="30" as="geometry" />
        </mxCell>
        <mxCell id="bBw4uAmNYkBWMHcCUEIj-47" style="rounded=0;orthogonalLoop=1;jettySize=auto;html=1;exitX=0.25;exitY=1;exitDx=0;exitDy=0;entryX=0.5;entryY=0;entryDx=0;entryDy=0;endArrow=none;endFill=0;" parent="1" source="yKqNTpvzBy1KA8ICd-nT-21" target="bBw4uAmNYkBWMHcCUEIj-45" edge="1">
          <mxGeometry relative="1" as="geometry" />
        </mxCell>
        <mxCell id="bBw4uAmNYkBWMHcCUEIj-48" style="rounded=0;orthogonalLoop=1;jettySize=auto;html=1;exitX=0.75;exitY=1;exitDx=0;exitDy=0;entryX=0.363;entryY=-0.04;entryDx=0;entryDy=0;entryPerimeter=0;endArrow=none;endFill=0;" parent="1" source="yKqNTpvzBy1KA8ICd-nT-21" target="bBw4uAmNYkBWMHcCUEIj-46" edge="1">
          <mxGeometry relative="1" as="geometry" />
        </mxCell>
        <mxCell id="bBw4uAmNYkBWMHcCUEIj-55" style="edgeStyle=none;rounded=0;orthogonalLoop=1;jettySize=auto;html=1;exitX=0.5;exitY=0;exitDx=0;exitDy=0;entryX=0.5;entryY=1;entryDx=0;entryDy=0;shape=link;movable=0;resizable=0;rotatable=0;deletable=0;editable=0;locked=1;connectable=0;" parent="1" source="yKqNTpvzBy1KA8ICd-nT-21" target="bBw4uAmNYkBWMHcCUEIj-50" edge="1">
          <mxGeometry relative="1" as="geometry" />
        </mxCell>
        <mxCell id="yKqNTpvzBy1KA8ICd-nT-21" value="Rosé" style="rounded=0;whiteSpace=wrap;html=1;" parent="1" vertex="1">
          <mxGeometry x="370" y="970" width="70" height="30" as="geometry" />
        </mxCell>
        <mxCell id="bBw4uAmNYkBWMHcCUEIj-44" style="rounded=0;orthogonalLoop=1;jettySize=auto;html=1;exitX=0.5;exitY=1;exitDx=0;exitDy=0;entryX=0.5;entryY=0;entryDx=0;entryDy=0;endArrow=none;endFill=0;" parent="1" source="yKqNTpvzBy1KA8ICd-nT-22" target="bBw4uAmNYkBWMHcCUEIj-43" edge="1">
          <mxGeometry relative="1" as="geometry" />
        </mxCell>
        <mxCell id="bBw4uAmNYkBWMHcCUEIj-56" style="edgeStyle=none;rounded=0;orthogonalLoop=1;jettySize=auto;html=1;exitX=0.5;exitY=0;exitDx=0;exitDy=0;entryX=0.5;entryY=1;entryDx=0;entryDy=0;shape=link;movable=0;resizable=0;rotatable=0;deletable=0;editable=0;locked=1;connectable=0;" parent="1" source="yKqNTpvzBy1KA8ICd-nT-22" target="bBw4uAmNYkBWMHcCUEIj-50" edge="1">
          <mxGeometry relative="1" as="geometry" />
        </mxCell>
        <mxCell id="yKqNTpvzBy1KA8ICd-nT-22" value="Sparkling" style="rounded=0;whiteSpace=wrap;html=1;" parent="1" vertex="1">
          <mxGeometry x="475" y="960" width="70" height="30" as="geometry" />
        </mxCell>
        <mxCell id="yKqNTpvzBy1KA8ICd-nT-115" style="edgeStyle=none;rounded=0;orthogonalLoop=1;jettySize=auto;html=1;exitX=0;exitY=0;exitDx=0;exitDy=0;entryX=1;entryY=1;entryDx=0;entryDy=0;endArrow=none;endFill=0;" parent="1" source="yKqNTpvzBy1KA8ICd-nT-24" target="yKqNTpvzBy1KA8ICd-nT-109" edge="1">
          <mxGeometry relative="1" as="geometry" />
        </mxCell>
        <mxCell id="yKqNTpvzBy1KA8ICd-nT-116" value="" style="edgeStyle=none;rounded=0;orthogonalLoop=1;jettySize=auto;html=1;endArrow=none;endFill=0;" parent="1" source="yKqNTpvzBy1KA8ICd-nT-24" target="yKqNTpvzBy1KA8ICd-nT-110" edge="1">
          <mxGeometry relative="1" as="geometry" />
        </mxCell>
        <mxCell id="yKqNTpvzBy1KA8ICd-nT-117" style="edgeStyle=none;rounded=0;orthogonalLoop=1;jettySize=auto;html=1;exitX=0.25;exitY=1;exitDx=0;exitDy=0;endArrow=none;endFill=0;" parent="1" source="yKqNTpvzBy1KA8ICd-nT-24" target="yKqNTpvzBy1KA8ICd-nT-111" edge="1">
          <mxGeometry relative="1" as="geometry" />
        </mxCell>
        <mxCell id="yKqNTpvzBy1KA8ICd-nT-118" style="edgeStyle=none;rounded=0;orthogonalLoop=1;jettySize=auto;html=1;exitX=0.75;exitY=1;exitDx=0;exitDy=0;endArrow=none;endFill=0;" parent="1" source="yKqNTpvzBy1KA8ICd-nT-24" target="yKqNTpvzBy1KA8ICd-nT-114" edge="1">
          <mxGeometry relative="1" as="geometry" />
        </mxCell>
        <mxCell id="yKqNTpvzBy1KA8ICd-nT-121" style="edgeStyle=none;rounded=0;orthogonalLoop=1;jettySize=auto;html=1;exitX=1;exitY=0;exitDx=0;exitDy=0;entryX=0.071;entryY=0.783;entryDx=0;entryDy=0;entryPerimeter=0;endArrow=none;endFill=0;" parent="1" source="yKqNTpvzBy1KA8ICd-nT-24" target="yKqNTpvzBy1KA8ICd-nT-112" edge="1">
          <mxGeometry relative="1" as="geometry" />
        </mxCell>
        <mxCell id="yKqNTpvzBy1KA8ICd-nT-122" style="edgeStyle=none;rounded=0;orthogonalLoop=1;jettySize=auto;html=1;exitX=1;exitY=0.75;exitDx=0;exitDy=0;entryX=0;entryY=0.5;entryDx=0;entryDy=0;endArrow=none;endFill=0;" parent="1" source="yKqNTpvzBy1KA8ICd-nT-24" target="yKqNTpvzBy1KA8ICd-nT-113" edge="1">
          <mxGeometry relative="1" as="geometry" />
        </mxCell>
        <mxCell id="yKqNTpvzBy1KA8ICd-nT-24" value="Quality" style="rounded=0;whiteSpace=wrap;html=1;" parent="1" vertex="1">
          <mxGeometry x="420" y="420" width="70" height="30" as="geometry" />
        </mxCell>
        <mxCell id="yKqNTpvzBy1KA8ICd-nT-45" value="&lt;u class=&quot;custom-cursor-default-hover&quot;&gt;Region ID&lt;/u&gt;" style="ellipse;whiteSpace=wrap;html=1;" parent="1" vertex="1">
          <mxGeometry x="-400" y="497.5" width="80" height="50" as="geometry" />
        </mxCell>
        <mxCell id="yKqNTpvzBy1KA8ICd-nT-46" value="&lt;span class=&quot;custom-cursor-default-hover&quot;&gt;Location Name&lt;/span&gt;" style="ellipse;whiteSpace=wrap;html=1;" parent="1" vertex="1">
          <mxGeometry x="-350" y="363.75" width="80" height="50" as="geometry" />
        </mxCell>
        <mxCell id="yKqNTpvzBy1KA8ICd-nT-49" value="&lt;span class=&quot;custom-cursor-default-hover&quot;&gt;Climate&lt;/span&gt;" style="ellipse;whiteSpace=wrap;html=1;" parent="1" vertex="1">
          <mxGeometry x="-140" y="323.75" width="80" height="50" as="geometry" />
        </mxCell>
        <mxCell id="yKqNTpvzBy1KA8ICd-nT-51" value="&lt;span class=&quot;custom-cursor-default-hover&quot;&gt;Continent&lt;/span&gt;" style="ellipse;whiteSpace=wrap;html=1;" parent="1" vertex="1">
          <mxGeometry x="-20" y="391.25" width="80" height="50" as="geometry" />
        </mxCell>
        <mxCell id="yKqNTpvzBy1KA8ICd-nT-77" style="edgeStyle=none;rounded=0;orthogonalLoop=1;jettySize=auto;html=1;exitX=0.25;exitY=0;exitDx=0;exitDy=0;entryX=0.5;entryY=1;entryDx=0;entryDy=0;endArrow=none;endFill=0;" parent="1" source="yKqNTpvzBy1KA8ICd-nT-53" target="yKqNTpvzBy1KA8ICd-nT-76" edge="1">
          <mxGeometry relative="1" as="geometry" />
        </mxCell>
        <mxCell id="yKqNTpvzBy1KA8ICd-nT-79" style="edgeStyle=none;rounded=0;orthogonalLoop=1;jettySize=auto;html=1;exitX=0.75;exitY=0;exitDx=0;exitDy=0;entryX=0.229;entryY=0.91;entryDx=0;entryDy=0;entryPerimeter=0;endArrow=none;endFill=0;" parent="1" source="yKqNTpvzBy1KA8ICd-nT-53" target="yKqNTpvzBy1KA8ICd-nT-78" edge="1">
          <mxGeometry relative="1" as="geometry" />
        </mxCell>
        <mxCell id="yKqNTpvzBy1KA8ICd-nT-53" value="Wine Club Membership" style="rounded=0;whiteSpace=wrap;html=1;" parent="1" vertex="1">
          <mxGeometry x="1220" y="410" width="70" height="30" as="geometry" />
        </mxCell>
        <mxCell id="yKqNTpvzBy1KA8ICd-nT-54" value="&lt;span class=&quot;custom-cursor-default-hover&quot;&gt;Country&lt;/span&gt;" style="ellipse;whiteSpace=wrap;html=1;" parent="1" vertex="1">
          <mxGeometry x="-20" y="471.25" width="80" height="50" as="geometry" />
        </mxCell>
        <mxCell id="yKqNTpvzBy1KA8ICd-nT-156" style="edgeStyle=none;rounded=0;orthogonalLoop=1;jettySize=auto;html=1;exitX=0;exitY=0.5;exitDx=0;exitDy=0;entryX=1;entryY=0.5;entryDx=0;entryDy=0;endArrow=none;endFill=0;" parent="1" source="yKqNTpvzBy1KA8ICd-nT-60" target="yKqNTpvzBy1KA8ICd-nT-155" edge="1">
          <mxGeometry relative="1" as="geometry" />
        </mxCell>
        <mxCell id="yKqNTpvzBy1KA8ICd-nT-157" style="edgeStyle=none;rounded=0;orthogonalLoop=1;jettySize=auto;html=1;exitX=1;exitY=0.25;exitDx=0;exitDy=0;endArrow=none;endFill=0;" parent="1" source="yKqNTpvzBy1KA8ICd-nT-60" target="yKqNTpvzBy1KA8ICd-nT-154" edge="1">
          <mxGeometry relative="1" as="geometry" />
        </mxCell>
        <mxCell id="yKqNTpvzBy1KA8ICd-nT-160" style="edgeStyle=none;rounded=0;orthogonalLoop=1;jettySize=auto;html=1;exitX=0.75;exitY=1;exitDx=0;exitDy=0;entryX=0.5;entryY=0;entryDx=0;entryDy=0;endArrow=none;endFill=0;" parent="1" source="yKqNTpvzBy1KA8ICd-nT-60" target="yKqNTpvzBy1KA8ICd-nT-158" edge="1">
          <mxGeometry relative="1" as="geometry" />
        </mxCell>
        <mxCell id="yKqNTpvzBy1KA8ICd-nT-60" value="Grape Varietal" style="rounded=0;whiteSpace=wrap;html=1;" parent="1" vertex="1">
          <mxGeometry x="75" y="580" width="70" height="30" as="geometry" />
        </mxCell>
        <mxCell id="yKqNTpvzBy1KA8ICd-nT-61" value="&lt;span class=&quot;custom-cursor-default-hover&quot;&gt;&lt;u&gt;UserID&lt;/u&gt;&lt;/span&gt;" style="ellipse;whiteSpace=wrap;html=1;" parent="1" vertex="1">
          <mxGeometry x="730" y="390" width="80" height="50" as="geometry" />
        </mxCell>
        <mxCell id="yKqNTpvzBy1KA8ICd-nT-62" value="&lt;span class=&quot;custom-cursor-default-hover&quot;&gt;National ID&lt;/span&gt;" style="ellipse;whiteSpace=wrap;html=1;" parent="1" vertex="1">
          <mxGeometry x="755" y="460" width="80" height="50" as="geometry" />
        </mxCell>
        <mxCell id="yKqNTpvzBy1KA8ICd-nT-65" value="" style="shape=requiredInterface;html=1;verticalLabelPosition=bottom;sketch=0;rotation=-50;" parent="1" vertex="1">
          <mxGeometry x="915" y="310" width="10" height="20" as="geometry" />
        </mxCell>
        <mxCell id="yKqNTpvzBy1KA8ICd-nT-67" value="" style="shape=requiredInterface;html=1;verticalLabelPosition=bottom;sketch=0;rotation=-133;" parent="1" vertex="1">
          <mxGeometry x="835" y="310" width="10" height="20" as="geometry" />
        </mxCell>
        <mxCell id="yKqNTpvzBy1KA8ICd-nT-68" value="&lt;span class=&quot;custom-cursor-default-hover&quot;&gt;Name&lt;/span&gt;" style="ellipse;whiteSpace=wrap;html=1;" parent="1" vertex="1">
          <mxGeometry x="905" y="497.5" width="80" height="50" as="geometry" />
        </mxCell>
        <mxCell id="yKqNTpvzBy1KA8ICd-nT-69" value="&lt;span class=&quot;custom-cursor-default-hover&quot;&gt;Age&lt;/span&gt;" style="ellipse;whiteSpace=wrap;html=1;dashed=1;" parent="1" vertex="1">
          <mxGeometry x="985" y="467.5" width="80" height="50" as="geometry" />
        </mxCell>
        <mxCell id="yKqNTpvzBy1KA8ICd-nT-70" value="&lt;span class=&quot;custom-cursor-default-hover&quot;&gt;Email&lt;/span&gt;" style="ellipse;whiteSpace=wrap;html=1;" parent="1" vertex="1">
          <mxGeometry x="950" y="350" width="80" height="50" as="geometry" />
        </mxCell>
        <mxCell id="yKqNTpvzBy1KA8ICd-nT-76" value="&lt;span class=&quot;custom-cursor-default-hover&quot;&gt;&lt;u&gt;National ID&lt;/u&gt;&lt;/span&gt;" style="ellipse;whiteSpace=wrap;html=1;" parent="1" vertex="1">
          <mxGeometry x="1160" y="300" width="80" height="50" as="geometry" />
        </mxCell>
        <mxCell id="yKqNTpvzBy1KA8ICd-nT-78" value="&lt;span class=&quot;custom-cursor-default-hover&quot;&gt;&lt;u&gt;Club Name&lt;/u&gt;&lt;/span&gt;" style="ellipse;whiteSpace=wrap;html=1;" parent="1" vertex="1">
          <mxGeometry x="1280" y="310" width="80" height="50" as="geometry" />
        </mxCell>
        <mxCell id="yKqNTpvzBy1KA8ICd-nT-81" value="&lt;span class=&quot;custom-cursor-default-hover&quot;&gt;Rating&lt;/span&gt;" style="ellipse;whiteSpace=wrap;html=1;" parent="1" vertex="1">
          <mxGeometry x="830" y="870" width="80" height="50" as="geometry" />
        </mxCell>
        <mxCell id="yKqNTpvzBy1KA8ICd-nT-82" value="&lt;span class=&quot;custom-cursor-default-hover&quot;&gt;Comment&lt;/span&gt;" style="ellipse;whiteSpace=wrap;html=1;" parent="1" vertex="1">
          <mxGeometry x="740" y="800" width="80" height="50" as="geometry" />
        </mxCell>
        <mxCell id="yKqNTpvzBy1KA8ICd-nT-83" value="&lt;span class=&quot;custom-cursor-default-hover&quot;&gt;&lt;u&gt;UserID&lt;/u&gt;&lt;/span&gt;" style="ellipse;whiteSpace=wrap;html=1;" parent="1" vertex="1">
          <mxGeometry x="1020" y="810" width="80" height="50" as="geometry" />
        </mxCell>
        <mxCell id="yKqNTpvzBy1KA8ICd-nT-84" value="&lt;span class=&quot;custom-cursor-default-hover&quot;&gt;&lt;u&gt;WineID&lt;/u&gt;&lt;/span&gt;" style="ellipse;whiteSpace=wrap;html=1;" parent="1" vertex="1">
          <mxGeometry x="930" y="870" width="80" height="50" as="geometry" />
        </mxCell>
        <mxCell id="yKqNTpvzBy1KA8ICd-nT-89" value="&lt;span class=&quot;custom-cursor-default-hover&quot;&gt;Name&lt;/span&gt;" style="ellipse;whiteSpace=wrap;html=1;" parent="1" vertex="1">
          <mxGeometry x="270" y="815" width="80" height="50" as="geometry" />
        </mxCell>
        <mxCell id="yKqNTpvzBy1KA8ICd-nT-90" value="&lt;span class=&quot;custom-cursor-default-hover&quot;&gt;&lt;u&gt;WineID&lt;/u&gt;&lt;/span&gt;" style="ellipse;whiteSpace=wrap;html=1;" parent="1" vertex="1">
          <mxGeometry x="220" y="660" width="80" height="50" as="geometry" />
        </mxCell>
        <mxCell id="yKqNTpvzBy1KA8ICd-nT-91" value="&lt;span class=&quot;custom-cursor-default-hover&quot;&gt;&lt;u&gt;WineryID&lt;/u&gt;&lt;/span&gt;" style="ellipse;whiteSpace=wrap;html=1;" parent="1" vertex="1">
          <mxGeometry x="260" y="605" width="80" height="50" as="geometry" />
        </mxCell>
        <mxCell id="yKqNTpvzBy1KA8ICd-nT-92" value="&lt;span class=&quot;custom-cursor-default-hover&quot;&gt;Price&lt;/span&gt;" style="ellipse;whiteSpace=wrap;html=1;" parent="1" vertex="1">
          <mxGeometry x="490" y="600" width="80" height="50" as="geometry" />
        </mxCell>
        <mxCell id="yKqNTpvzBy1KA8ICd-nT-94" value="&lt;span class=&quot;custom-cursor-default-hover&quot;&gt;Bottle Size&lt;/span&gt;" style="ellipse;whiteSpace=wrap;html=1;" parent="1" vertex="1">
          <mxGeometry x="570" y="660" width="80" height="50" as="geometry" />
        </mxCell>
        <mxCell id="yKqNTpvzBy1KA8ICd-nT-101" value="&lt;span class=&quot;custom-cursor-default-hover&quot;&gt;Style&lt;/span&gt;" style="ellipse;whiteSpace=wrap;html=1;" parent="1" vertex="1">
          <mxGeometry x="620" y="1040" width="80" height="50" as="geometry" />
        </mxCell>
        <mxCell id="yKqNTpvzBy1KA8ICd-nT-109" value="&lt;span class=&quot;custom-cursor-default-hover&quot;&gt;Alcohol content&lt;/span&gt;" style="ellipse;whiteSpace=wrap;html=1;" parent="1" vertex="1">
          <mxGeometry x="290" y="340" width="80" height="50" as="geometry" />
        </mxCell>
        <mxCell id="yKqNTpvzBy1KA8ICd-nT-110" value="&lt;span class=&quot;custom-cursor-default-hover&quot;&gt;Density&lt;/span&gt;" style="ellipse;whiteSpace=wrap;html=1;" parent="1" vertex="1">
          <mxGeometry x="240" y="440" width="80" height="50" as="geometry" />
        </mxCell>
        <mxCell id="yKqNTpvzBy1KA8ICd-nT-111" value="&lt;span class=&quot;custom-cursor-default-hover&quot;&gt;pH&lt;/span&gt;" style="ellipse;whiteSpace=wrap;html=1;" parent="1" vertex="1">
          <mxGeometry x="310" y="500" width="80" height="50" as="geometry" />
        </mxCell>
        <mxCell id="yKqNTpvzBy1KA8ICd-nT-112" value="&lt;span class=&quot;custom-cursor-default-hover&quot;&gt;Residual Sugar&lt;/span&gt;" style="ellipse;whiteSpace=wrap;html=1;" parent="1" vertex="1">
          <mxGeometry x="545" y="340" width="80" height="50" as="geometry" />
        </mxCell>
        <mxCell id="yKqNTpvzBy1KA8ICd-nT-113" value="Fixed Acidity" style="ellipse;whiteSpace=wrap;html=1;" parent="1" vertex="1">
          <mxGeometry x="570" y="440" width="80" height="50" as="geometry" />
        </mxCell>
        <mxCell id="yKqNTpvzBy1KA8ICd-nT-114" value="&lt;span class=&quot;custom-cursor-default-hover&quot;&gt;&lt;u&gt;WineID&lt;/u&gt;&lt;/span&gt;" style="ellipse;whiteSpace=wrap;html=1;" parent="1" vertex="1">
          <mxGeometry x="510" y="500" width="80" height="50" as="geometry" />
        </mxCell>
        <mxCell id="yKqNTpvzBy1KA8ICd-nT-123" value="&lt;span class=&quot;custom-cursor-default-hover&quot;&gt;&lt;u&gt;WineryID&lt;/u&gt;&lt;/span&gt;" style="ellipse;whiteSpace=wrap;html=1;" parent="1" vertex="1">
          <mxGeometry x="-430" y="790" width="80" height="50" as="geometry" />
        </mxCell>
        <mxCell id="yKqNTpvzBy1KA8ICd-nT-124" value="&lt;span class=&quot;custom-cursor-default-hover&quot;&gt;&lt;u&gt;RegionID&lt;/u&gt;&lt;/span&gt;" style="ellipse;whiteSpace=wrap;html=1;" parent="1" vertex="1">
          <mxGeometry x="-410" y="710" width="80" height="50" as="geometry" />
        </mxCell>
        <mxCell id="yKqNTpvzBy1KA8ICd-nT-125" value="&lt;span class=&quot;custom-cursor-default-hover&quot;&gt;Name&lt;/span&gt;" style="ellipse;whiteSpace=wrap;html=1;" parent="1" vertex="1">
          <mxGeometry x="-70" y="700" width="80" height="50" as="geometry" />
        </mxCell>
        <mxCell id="yKqNTpvzBy1KA8ICd-nT-139" value="&lt;span class=&quot;custom-cursor-default-hover&quot;&gt;Production size&lt;/span&gt;" style="ellipse;whiteSpace=wrap;html=1;" parent="1" vertex="1">
          <mxGeometry y="820" width="80" height="50" as="geometry" />
        </mxCell>
        <mxCell id="yKqNTpvzBy1KA8ICd-nT-142" value="&lt;span class=&quot;custom-cursor-default-hover&quot;&gt;Winemaker&lt;/span&gt;" style="ellipse;whiteSpace=wrap;html=1;" parent="1" vertex="1">
          <mxGeometry x="-420" y="865" width="80" height="50" as="geometry" />
        </mxCell>
        <mxCell id="yKqNTpvzBy1KA8ICd-nT-146" value="&lt;span class=&quot;custom-cursor-default-hover&quot;&gt;Licensed&lt;/span&gt;" style="ellipse;whiteSpace=wrap;html=1;" parent="1" vertex="1">
          <mxGeometry x="-330" y="920" width="80" height="50" as="geometry" />
        </mxCell>
        <mxCell id="yKqNTpvzBy1KA8ICd-nT-148" style="edgeStyle=none;rounded=0;orthogonalLoop=1;jettySize=auto;html=1;endArrow=none;endFill=0;exitX=0.75;exitY=1;exitDx=0;exitDy=0;" parent="1" source="yKqNTpvzBy1KA8ICd-nT-14" target="yKqNTpvzBy1KA8ICd-nT-149" edge="1">
          <mxGeometry relative="1" as="geometry">
            <mxPoint x="-110" y="890" as="sourcePoint" />
          </mxGeometry>
        </mxCell>
        <mxCell id="yKqNTpvzBy1KA8ICd-nT-149" value="&lt;span class=&quot;custom-cursor-default-hover&quot;&gt;Vineyard&lt;/span&gt;" style="ellipse;whiteSpace=wrap;html=1;" parent="1" vertex="1">
          <mxGeometry x="-20" y="900" width="80" height="50" as="geometry" />
        </mxCell>
        <mxCell id="yKqNTpvzBy1KA8ICd-nT-150" value="&lt;span class=&quot;custom-cursor-default-hover&quot;&gt;Number of bottles&lt;/span&gt;" style="ellipse;whiteSpace=wrap;html=1;" parent="1" vertex="1">
          <mxGeometry x="-290" y="1180" width="80" height="50" as="geometry" />
        </mxCell>
        <mxCell id="yKqNTpvzBy1KA8ICd-nT-152" value="&lt;span class=&quot;custom-cursor-default-hover&quot;&gt;&lt;u&gt;WineryID&lt;/u&gt;&lt;/span&gt;" style="ellipse;whiteSpace=wrap;html=1;" parent="1" vertex="1">
          <mxGeometry x="-80" y="1170" width="80" height="50" as="geometry" />
        </mxCell>
        <mxCell id="yKqNTpvzBy1KA8ICd-nT-154" value="&lt;span class=&quot;custom-cursor-default-hover&quot;&gt;Name&lt;/span&gt;" style="ellipse;whiteSpace=wrap;html=1;" parent="1" vertex="1">
          <mxGeometry x="160" y="517.5" width="80" height="50" as="geometry" />
        </mxCell>
        <mxCell id="yKqNTpvzBy1KA8ICd-nT-155" value="&lt;span class=&quot;custom-cursor-default-hover&quot;&gt;Description&lt;/span&gt;" style="ellipse;whiteSpace=wrap;html=1;" parent="1" vertex="1">
          <mxGeometry x="-30" y="567.5" width="80" height="50" as="geometry" />
        </mxCell>
        <mxCell id="yKqNTpvzBy1KA8ICd-nT-158" value="&lt;u class=&quot;custom-cursor-default-hover&quot; style=&quot;border-color: var(--border-color);&quot;&gt;VarietalID&lt;/u&gt;" style="ellipse;whiteSpace=wrap;html=1;" parent="1" vertex="1">
          <mxGeometry x="130" y="620" width="80" height="50" as="geometry" />
        </mxCell>
        <mxCell id="yKqNTpvzBy1KA8ICd-nT-159" value="&lt;u class=&quot;custom-cursor-default-hover&quot; style=&quot;border-color: var(--border-color);&quot;&gt;VarietalID&lt;/u&gt;" style="ellipse;whiteSpace=wrap;html=1;" parent="1" vertex="1">
          <mxGeometry x="580" y="815" width="80" height="50" as="geometry" />
        </mxCell>
        <mxCell id="epXwrt9EgfoQDbiwn7uX-3" value="Rates" style="shape=rhombus;perimeter=rhombusPerimeter;whiteSpace=wrap;html=1;align=center;" parent="1" vertex="1">
          <mxGeometry x="820" y="600" width="120" height="60" as="geometry" />
        </mxCell>
        <mxCell id="epXwrt9EgfoQDbiwn7uX-4" value="" style="shape=link;html=1;rounded=0;exitX=0.5;exitY=0;exitDx=0;exitDy=0;" parent="1" source="epXwrt9EgfoQDbiwn7uX-3" edge="1">
          <mxGeometry relative="1" as="geometry">
            <mxPoint x="695" y="524.29" as="sourcePoint" />
            <mxPoint x="880" y="440" as="targetPoint" />
          </mxGeometry>
        </mxCell>
        <mxCell id="epXwrt9EgfoQDbiwn7uX-5" value="1" style="resizable=0;html=1;whiteSpace=wrap;align=right;verticalAlign=bottom;" parent="epXwrt9EgfoQDbiwn7uX-4" connectable="0" vertex="1">
          <mxGeometry x="1" relative="1" as="geometry">
            <mxPoint x="-9" y="156" as="offset" />
          </mxGeometry>
        </mxCell>
        <mxCell id="epXwrt9EgfoQDbiwn7uX-6" value="" style="shape=link;html=1;rounded=0;exitX=0.5;exitY=1;exitDx=0;exitDy=0;entryX=0.5;entryY=0;entryDx=0;entryDy=0;" parent="1" source="epXwrt9EgfoQDbiwn7uX-3" target="yKqNTpvzBy1KA8ICd-nT-10" edge="1">
          <mxGeometry relative="1" as="geometry">
            <mxPoint x="890" y="684.29" as="sourcePoint" />
            <mxPoint x="1050" y="684.29" as="targetPoint" />
          </mxGeometry>
        </mxCell>
        <mxCell id="epXwrt9EgfoQDbiwn7uX-7" value="N" style="resizable=0;html=1;whiteSpace=wrap;align=right;verticalAlign=bottom;" parent="epXwrt9EgfoQDbiwn7uX-6" connectable="0" vertex="1">
          <mxGeometry x="1" relative="1" as="geometry">
            <mxPoint x="-12" y="-75" as="offset" />
          </mxGeometry>
        </mxCell>
        <mxCell id="epXwrt9EgfoQDbiwn7uX-12" value="" style="shape=link;html=1;rounded=0;width=4.2857142857142865;entryX=0;entryY=0.5;entryDx=0;entryDy=0;exitX=1;exitY=0.5;exitDx=0;exitDy=0;" parent="1" source="epXwrt9EgfoQDbiwn7uX-8" target="yKqNTpvzBy1KA8ICd-nT-12" edge="1">
          <mxGeometry relative="1" as="geometry">
            <mxPoint x="10" y="754.29" as="sourcePoint" />
            <mxPoint x="170" y="754.29" as="targetPoint" />
          </mxGeometry>
        </mxCell>
        <mxCell id="epXwrt9EgfoQDbiwn7uX-14" value="N" style="resizable=0;html=1;whiteSpace=wrap;align=right;verticalAlign=bottom;" parent="epXwrt9EgfoQDbiwn7uX-12" connectable="0" vertex="1">
          <mxGeometry x="1" relative="1" as="geometry">
            <mxPoint x="-240" as="offset" />
          </mxGeometry>
        </mxCell>
        <mxCell id="epXwrt9EgfoQDbiwn7uX-15" value="" style="shape=link;html=1;rounded=0;exitX=1;exitY=0.5;exitDx=0;exitDy=0;entryX=0;entryY=0.5;entryDx=0;entryDy=0;" parent="1" source="yKqNTpvzBy1KA8ICd-nT-14" target="epXwrt9EgfoQDbiwn7uX-8" edge="1">
          <mxGeometry relative="1" as="geometry">
            <mxPoint x="10" y="754.29" as="sourcePoint" />
            <mxPoint x="170" y="754.29" as="targetPoint" />
          </mxGeometry>
        </mxCell>
        <mxCell id="epXwrt9EgfoQDbiwn7uX-16" value="1" style="resizable=0;html=1;whiteSpace=wrap;align=left;verticalAlign=bottom;" parent="epXwrt9EgfoQDbiwn7uX-15" connectable="0" vertex="1">
          <mxGeometry x="-1" relative="1" as="geometry">
            <mxPoint x="170" y="-5" as="offset" />
          </mxGeometry>
        </mxCell>
        <mxCell id="bBw4uAmNYkBWMHcCUEIj-4" style="rounded=0;orthogonalLoop=1;jettySize=auto;html=1;exitX=0.5;exitY=0;exitDx=0;exitDy=0;entryX=0.5;entryY=1;entryDx=0;entryDy=0;shape=link;" parent="1" source="epXwrt9EgfoQDbiwn7uX-8" target="yKqNTpvzBy1KA8ICd-nT-60" edge="1">
          <mxGeometry relative="1" as="geometry" />
        </mxCell>
        <mxCell id="epXwrt9EgfoQDbiwn7uX-8" value="Produces" style="shape=rhombus;perimeter=rhombusPerimeter;whiteSpace=wrap;html=1;align=center;" parent="1" vertex="1">
          <mxGeometry x="50" y="760" width="120" height="60" as="geometry" />
        </mxCell>
        <mxCell id="bBw4uAmNYkBWMHcCUEIj-2" value="&lt;u class=&quot;custom-cursor-default-hover&quot; style=&quot;border-color: var(--border-color);&quot;&gt;VarietalID&lt;/u&gt;" style="ellipse;whiteSpace=wrap;html=1;" parent="1" vertex="1">
          <mxGeometry x="-90" y="940" width="80" height="50" as="geometry" />
        </mxCell>
        <mxCell id="bBw4uAmNYkBWMHcCUEIj-5" value="1" style="resizable=0;html=1;whiteSpace=wrap;align=right;verticalAlign=bottom;" parent="1" connectable="0" vertex="1">
          <mxGeometry x="190.00001499500178" y="800.0009997001" as="geometry">
            <mxPoint x="-66" y="-37" as="offset" />
          </mxGeometry>
        </mxCell>
        <mxCell id="bBw4uAmNYkBWMHcCUEIj-10" style="edgeStyle=orthogonalEdgeStyle;rounded=0;orthogonalLoop=1;jettySize=auto;html=1;exitX=0.5;exitY=0;exitDx=0;exitDy=0;entryX=0.5;entryY=1;entryDx=0;entryDy=0;shape=link;" parent="1" source="bBw4uAmNYkBWMHcCUEIj-8" target="yKqNTpvzBy1KA8ICd-nT-15" edge="1">
          <mxGeometry relative="1" as="geometry" />
        </mxCell>
        <mxCell id="bBw4uAmNYkBWMHcCUEIj-8" value="Is in a" style="shape=rhombus;perimeter=rhombusPerimeter;whiteSpace=wrap;html=1;align=center;" parent="1" vertex="1">
          <mxGeometry x="-225" y="600" width="120" height="60" as="geometry" />
        </mxCell>
        <mxCell id="bBw4uAmNYkBWMHcCUEIj-12" value="1" style="resizable=0;html=1;whiteSpace=wrap;align=left;verticalAlign=bottom;" parent="1" connectable="0" vertex="1">
          <mxGeometry x="60" y="805" as="geometry">
            <mxPoint x="-216" y="-199" as="offset" />
          </mxGeometry>
        </mxCell>
        <mxCell id="bBw4uAmNYkBWMHcCUEIj-13" value="N" style="resizable=0;html=1;whiteSpace=wrap;align=right;verticalAlign=bottom;" parent="1" connectable="0" vertex="1">
          <mxGeometry x="189.95001499500177" y="795.0009997001" as="geometry">
            <mxPoint x="-333" y="-117" as="offset" />
          </mxGeometry>
        </mxCell>
        <mxCell id="bBw4uAmNYkBWMHcCUEIj-17" style="edgeStyle=orthogonalEdgeStyle;rounded=0;orthogonalLoop=1;jettySize=auto;html=1;exitX=0.5;exitY=1;exitDx=0;exitDy=0;entryX=0.5;entryY=0;entryDx=0;entryDy=0;shape=link;" parent="1" source="bBw4uAmNYkBWMHcCUEIj-15" target="yKqNTpvzBy1KA8ICd-nT-16" edge="1">
          <mxGeometry relative="1" as="geometry" />
        </mxCell>
        <mxCell id="bBw4uAmNYkBWMHcCUEIj-15" value="Has" style="shape=rhombus;perimeter=rhombusPerimeter;whiteSpace=wrap;html=1;align=center;" parent="1" vertex="1">
          <mxGeometry x="-225" y="920" width="120" height="60" as="geometry" />
        </mxCell>
        <mxCell id="bBw4uAmNYkBWMHcCUEIj-18" value="1" style="resizable=0;html=1;whiteSpace=wrap;align=left;verticalAlign=bottom;" parent="1" connectable="0" vertex="1">
          <mxGeometry x="40" y="790" as="geometry">
            <mxPoint x="-204" y="133" as="offset" />
          </mxGeometry>
        </mxCell>
        <mxCell id="bBw4uAmNYkBWMHcCUEIj-19" value="1" style="resizable=0;html=1;whiteSpace=wrap;align=left;verticalAlign=bottom;" parent="1" connectable="0" vertex="1">
          <mxGeometry x="250" y="560" as="geometry">
            <mxPoint x="-412" y="439" as="offset" />
          </mxGeometry>
        </mxCell>
        <mxCell id="bBw4uAmNYkBWMHcCUEIj-22" style="edgeStyle=orthogonalEdgeStyle;rounded=0;orthogonalLoop=1;jettySize=auto;html=1;exitX=0.5;exitY=0;exitDx=0;exitDy=0;entryX=0.5;entryY=1;entryDx=0;entryDy=0;shape=link;" parent="1" source="bBw4uAmNYkBWMHcCUEIj-20" target="yKqNTpvzBy1KA8ICd-nT-24" edge="1">
          <mxGeometry relative="1" as="geometry" />
        </mxCell>
        <mxCell id="bBw4uAmNYkBWMHcCUEIj-20" value="Is in a" style="shape=rhombus;perimeter=rhombusPerimeter;whiteSpace=wrap;html=1;align=center;" parent="1" vertex="1">
          <mxGeometry x="395" y="540" width="120" height="60" as="geometry" />
        </mxCell>
        <mxCell id="bBw4uAmNYkBWMHcCUEIj-23" value="1" style="text;html=1;align=center;verticalAlign=middle;resizable=0;points=[];autosize=1;strokeColor=none;fillColor=none;" parent="1" vertex="1">
          <mxGeometry x="450" y="587.5" width="30" height="30" as="geometry" />
        </mxCell>
        <mxCell id="bBw4uAmNYkBWMHcCUEIj-24" value="1" style="text;html=1;align=center;verticalAlign=middle;resizable=0;points=[];autosize=1;strokeColor=none;fillColor=none;" parent="1" vertex="1">
          <mxGeometry x="450" y="520" width="30" height="30" as="geometry" />
        </mxCell>
        <mxCell id="bBw4uAmNYkBWMHcCUEIj-28" style="edgeStyle=orthogonalEdgeStyle;rounded=0;orthogonalLoop=1;jettySize=auto;html=1;exitX=1;exitY=0.5;exitDx=0;exitDy=0;shape=link;" parent="1" source="bBw4uAmNYkBWMHcCUEIj-26" target="yKqNTpvzBy1KA8ICd-nT-53" edge="1">
          <mxGeometry relative="1" as="geometry" />
        </mxCell>
        <mxCell id="bBw4uAmNYkBWMHcCUEIj-26" value="Rates" style="shape=rhombus;perimeter=rhombusPerimeter;whiteSpace=wrap;html=1;align=center;" parent="1" vertex="1">
          <mxGeometry x="1030" y="395" width="120" height="60" as="geometry" />
        </mxCell>
        <mxCell id="bBw4uAmNYkBWMHcCUEIj-29" value="1" style="text;html=1;align=center;verticalAlign=middle;resizable=0;points=[];autosize=1;strokeColor=none;fillColor=none;" parent="1" vertex="1">
          <mxGeometry x="1015" y="398" width="30" height="30" as="geometry" />
        </mxCell>
        <mxCell id="bBw4uAmNYkBWMHcCUEIj-30" value="N" style="text;html=1;align=center;verticalAlign=middle;resizable=0;points=[];autosize=1;strokeColor=none;fillColor=none;" parent="1" vertex="1">
          <mxGeometry x="1135" y="398" width="30" height="30" as="geometry" />
        </mxCell>
        <mxCell id="bBw4uAmNYkBWMHcCUEIj-33" style="edgeStyle=orthogonalEdgeStyle;rounded=0;orthogonalLoop=1;jettySize=auto;html=1;exitX=1;exitY=0.5;exitDx=0;exitDy=0;entryX=0;entryY=0.5;entryDx=0;entryDy=0;shape=link;" parent="1" source="bBw4uAmNYkBWMHcCUEIj-31" target="yKqNTpvzBy1KA8ICd-nT-10" edge="1">
          <mxGeometry relative="1" as="geometry" />
        </mxCell>
        <mxCell id="bBw4uAmNYkBWMHcCUEIj-31" value="Rates" style="shape=rhombus;perimeter=rhombusPerimeter;whiteSpace=wrap;html=1;align=center;" parent="1" vertex="1">
          <mxGeometry x="605" y="755" width="120" height="60" as="geometry" />
        </mxCell>
        <mxCell id="bBw4uAmNYkBWMHcCUEIj-34" value="1" style="text;html=1;align=center;verticalAlign=middle;resizable=0;points=[];autosize=1;strokeColor=none;fillColor=none;" parent="1" vertex="1">
          <mxGeometry x="595" y="758" width="30" height="30" as="geometry" />
        </mxCell>
        <mxCell id="bBw4uAmNYkBWMHcCUEIj-35" value="N" style="text;html=1;align=center;verticalAlign=middle;resizable=0;points=[];autosize=1;strokeColor=none;fillColor=none;" parent="1" vertex="1">
          <mxGeometry x="705" y="758" width="30" height="30" as="geometry" />
        </mxCell>
        <mxCell id="bBw4uAmNYkBWMHcCUEIj-36" value="&lt;span class=&quot;custom-cursor-default-hover&quot;&gt;Tannin&lt;/span&gt;" style="ellipse;whiteSpace=wrap;html=1;" parent="1" vertex="1">
          <mxGeometry x="130" y="1040" width="80" height="50" as="geometry" />
        </mxCell>
        <mxCell id="bBw4uAmNYkBWMHcCUEIj-41" value="&lt;span class=&quot;custom-cursor-default-hover&quot;&gt;Shade&lt;/span&gt;" style="ellipse;whiteSpace=wrap;html=1;" parent="1" vertex="1">
          <mxGeometry x="220" y="1060" width="80" height="50" as="geometry" />
        </mxCell>
        <mxCell id="bBw4uAmNYkBWMHcCUEIj-43" value="&lt;span class=&quot;custom-cursor-default-hover&quot;&gt;Carbon content&lt;/span&gt;" style="ellipse;whiteSpace=wrap;html=1;" parent="1" vertex="1">
          <mxGeometry x="515" y="1060" width="80" height="50" as="geometry" />
        </mxCell>
        <mxCell id="bBw4uAmNYkBWMHcCUEIj-45" value="&lt;span class=&quot;custom-cursor-default-hover&quot;&gt;Percentage White&lt;/span&gt;" style="ellipse;whiteSpace=wrap;html=1;" parent="1" vertex="1">
          <mxGeometry x="320" y="1070" width="80" height="50" as="geometry" />
        </mxCell>
        <mxCell id="bBw4uAmNYkBWMHcCUEIj-46" value="Percentage Red" style="ellipse;whiteSpace=wrap;html=1;" parent="1" vertex="1">
          <mxGeometry x="410" y="1070" width="80" height="50" as="geometry" />
        </mxCell>
        <mxCell id="bBw4uAmNYkBWMHcCUEIj-50" value="d" style="ellipse;whiteSpace=wrap;html=1;aspect=fixed;" parent="1" vertex="1">
          <mxGeometry x="445" y="845" width="20" height="20" as="geometry" />
        </mxCell>
        <mxCell id="bBw4uAmNYkBWMHcCUEIj-59" value="" style="shape=requiredInterface;html=1;verticalLabelPosition=bottom;sketch=0;rotation=-210;" parent="1" vertex="1">
          <mxGeometry x="325" y="910" width="10" height="20" as="geometry" />
        </mxCell>
        <mxCell id="bBw4uAmNYkBWMHcCUEIj-60" value="" style="shape=requiredInterface;html=1;verticalLabelPosition=bottom;sketch=0;rotation=40;" parent="1" vertex="1">
          <mxGeometry x="535" y="900" width="10" height="20" as="geometry" />
        </mxCell>
        <mxCell id="Wu9X-qJuSsaYSwF_JaKZ-4" value="" style="endArrow=none;html=1;rounded=0;exitX=0;exitY=0;exitDx=0;exitDy=0;" parent="1" source="yKqNTpvzBy1KA8ICd-nT-2" edge="1">
          <mxGeometry width="50" height="50" relative="1" as="geometry">
            <mxPoint x="710" y="450" as="sourcePoint" />
            <mxPoint x="800" y="360" as="targetPoint" />
          </mxGeometry>
        </mxCell>
        <mxCell id="Wu9X-qJuSsaYSwF_JaKZ-5" value="Password" style="ellipse;whiteSpace=wrap;html=1;" parent="1" vertex="1">
          <mxGeometry x="735" y="330" width="70" height="50" as="geometry" />
        </mxCell>
        <mxCell id="sT_qy2T6dDk1ztZ0Kp_r-6" value="" style="shape=requiredInterface;html=1;verticalLabelPosition=bottom;sketch=0;rotation=60;" parent="1" vertex="1">
          <mxGeometry x="480" y="910" width="10" height="20" as="geometry" />
        </mxCell>
        <mxCell id="sT_qy2T6dDk1ztZ0Kp_r-10" value="" style="shape=requiredInterface;html=1;verticalLabelPosition=bottom;sketch=0;rotation=115;" parent="1" vertex="1">
          <mxGeometry x="420" y="915" width="10" height="20" as="geometry" />
        </mxCell>
        <mxCell id="sT_qy2T6dDk1ztZ0Kp_r-14" value="" style="shape=requiredInterface;html=1;verticalLabelPosition=bottom;sketch=0;rotation=125;" parent="1" vertex="1">
          <mxGeometry x="370" y="915" width="10" height="20" as="geometry" />
        </mxCell>
        <mxCell id="sT_qy2T6dDk1ztZ0Kp_r-19" value="AdminID" style="ellipse;whiteSpace=wrap;html=1;" parent="1" vertex="1">
          <mxGeometry x="720" y="180" width="60" height="30" as="geometry" />
        </mxCell>
        <mxCell id="sT_qy2T6dDk1ztZ0Kp_r-20" value="" style="endArrow=none;html=1;rounded=0;exitX=0.5;exitY=0;exitDx=0;exitDy=0;" parent="1" source="yKqNTpvzBy1KA8ICd-nT-5" edge="1">
          <mxGeometry width="50" height="50" relative="1" as="geometry">
            <mxPoint x="980" y="200" as="sourcePoint" />
            <mxPoint x="760" y="210" as="targetPoint" />
          </mxGeometry>
        </mxCell>
        <mxCell id="UHIV98oi8IEQWL0G3CGc-1" value="N" style="text;html=1;align=center;verticalAlign=middle;resizable=0;points=[];autosize=1;strokeColor=none;fillColor=none;" vertex="1" parent="1">
          <mxGeometry x="80" y="740" width="30" height="30" as="geometry" />
        </mxCell>
      </root>
    </mxGraphModel>
  </diagram>
</mxfile>
